<?xml version="1.0" standalone="no"?>
<!DOCTYPE svg PUBLIC "-//W3C//DTD SVG 20010904//EN"
 "http://www.w3.org/TR/2001/REC-SVG-20010904/DTD/svg10.dtd">
<svg version="1.0" xmlns="http://www.w3.org/2000/svg"
 width="800.000000pt" height="800.000000pt" viewBox="0 0 800.000000 800.000000"
 preserveAspectRatio="xMidYMid meet">
<metadata>
Created by potrace 1.11, written by Peter Selinger 2001-2013
</metadata>
<g transform="translate(0.000000,800.000000) scale(0.100000,-0.100000)"
fill="#000000" stroke="none">
<path d="M6940 7744 c-245 -135 -488 -269 -540 -296 -52 -28 -99 -54 -105 -58
-5 -4 -46 -27 -90 -50 -69 -37 -149 -81 -415 -228 -25 -13 -74 -40 -110 -60
-36 -19 -104 -57 -152 -83 -48 -27 -122 -67 -165 -90 -43 -23 -82 -45 -88 -49
-5 -4 -46 -26 -90 -50 -44 -24 -145 -79 -225 -123 -80 -44 -170 -93 -200 -110
-53 -28 -86 -46 -210 -114 -30 -17 -80 -44 -110 -61 -68 -37 -154 -85 -158
-87 -3 -2 143 -145 203 -200 17 -15 86 -80 155 -145 69 -65 145 -137 170 -160
24 -23 105 -100 180 -170 74 -70 155 -147 180 -170 25 -23 103 -97 173 -164
211 -199 262 -246 267 -246 3 0 210 205 460 455 l455 455 2 292 c1 161 2 309
2 329 1 31 12 47 79 116 90 95 449 465 651 673 l140 145 1 248 c0 136 -3 247
-7 246 -5 0 -208 -110 -453 -245z"/>
<path d="M3590 6072 c-245 -105 -244 -105 -250 -107 -3 -1 -16 -6 -30 -12 -14
-6 -115 -49 -225 -96 -110 -47 -243 -103 -295 -125 -52 -22 -187 -79 -300
-127 -113 -48 -218 -93 -235 -100 -16 -8 -142 -61 -279 -119 l-249 -104 -18
-49 c-17 -48 -162 -494 -164 -503 -1 -5 -144 -446 -176 -542 -10 -32 -19 -60
-19 -64 0 -4 113 168 251 382 342 531 338 524 349 524 6 0 23 9 38 19 15 11
142 89 282 174 140 84 413 250 605 367 193 117 359 218 370 224 11 6 31 18 45
27 77 48 173 107 325 199 157 95 196 120 185 120 -3 0 -97 -40 -210 -88z"/>
<path d="M3500 5508 l-641 -642 640 -640 641 -641 642 642 642 642 -641 641
-641 640 -642 -642z"/>
<path d="M1259 5761 l-436 -219 -117 117 c-103 102 -116 112 -112 86 3 -16 15
-77 26 -135 10 -58 27 -149 37 -202 16 -93 18 -98 43 -99 14 0 164 -1 334 -2
l308 -2 13 -35 c7 -19 27 -82 44 -139 17 -58 33 -106 35 -108 1 -2 35 79 75
179 40 101 80 198 89 217 17 34 23 36 297 128 154 52 287 96 295 98 8 2 16 4
18 5 1 2 5 3 10 4 4 1 52 17 107 36 55 19 105 35 112 36 6 1 19 6 28 11 12 7
-5 16 -72 36 -48 14 -196 58 -328 97 -132 40 -251 74 -264 77 -13 2 -31 8 -40
12 -52 26 -58 24 -502 -198z"/>
<path d="M6212 5257 c-169 -167 -360 -355 -426 -418 -65 -63 -146 -141 -180
-174 -159 -153 -514 -495 -560 -539 -194 -185 -462 -444 -477 -460 -13 -13
-19 -35 -20 -65 0 -57 0 -3060 0 -3118 l1 -43 59 58 c57 56 403 390 551 532
41 40 164 158 274 264 109 105 232 224 275 265 348 335 563 542 730 704 l105
101 -3 451 c-3 535 -9 1908 -11 2398 0 191 -3 347 -6 347 -3 0 -143 -137 -312
-303z"/>
<path d="M4291 3359 l-151 -152 0 -1601 0 -1601 155 155 156 155 -2 1598 c-1
878 -3 1597 -4 1597 -2 0 -71 -68 -154 -151z"/>
<path d="M1356 3045 c3 -33 7 -73 9 -90 1 -16 6 -61 10 -100 4 -38 8 -81 10
-95 13 -112 17 -148 20 -170 2 -14 6 -56 10 -95 3 -38 8 -81 10 -95 4 -24 15
-134 20 -195 1 -16 5 -50 8 -75 4 -25 9 -70 12 -100 3 -30 8 -68 10 -85 2 -16
6 -61 10 -100 3 -38 8 -81 10 -95 3 -14 7 -54 10 -90 12 -145 4 -132 113 -175
53 -21 113 -45 132 -53 19 -9 40 -17 45 -18 12 -3 601 -241 630 -254 11 -5 79
-32 150 -61 72 -28 144 -56 160 -64 17 -7 118 -47 225 -90 107 -43 209 -83
225 -90 144 -62 759 -304 763 -300 3 2 -8 9 -24 15 -16 6 -36 17 -44 24 -8 7
-51 32 -95 56 -44 23 -84 46 -90 50 -5 4 -35 21 -65 37 -30 17 -84 47 -120 68
-36 21 -90 51 -120 68 -30 17 -88 50 -128 74 -41 24 -75 43 -77 43 -1 0 -121
68 -265 150 -144 83 -264 150 -266 150 -3 0 -21 11 -42 23 -20 13 -62 38 -92
54 -55 31 -239 135 -597 339 l-193 109 -20 65 c-11 36 -25 79 -30 95 -16 53
-172 599 -180 630 -4 17 -20 71 -35 120 -15 50 -40 135 -55 190 -16 55 -35
120 -44 145 l-15 45 5 -60z"/>
<path d="M1939 896 l95 -283 473 0 c260 0 473 1 473 3 0 5 -1118 564 -1128
564 -4 0 35 -128 87 -284z"/>
</g>
</svg>
